<svg width="53" height="51" viewBox="0 0 53 51" fill="none" xmlns="http://www.w3.org/2000/svg">
<path d="M33.4352 9.01295C33.4352 13.7991 33.5031 17.7027 33.6049 17.7027C33.7746 17.7027 33.9783 17.533 43.4488 8.368C47.3184 4.63413 50.645 1.4773 50.8486 1.34153C51.0523 1.20575 51.1541 1.03603 51.0862 0.968139C50.9844 0.866306 46.979 0.696584 42.1928 0.560807L33.4352 0.323196V9.01295Z" fill="#ECECEC"/>
<path d="M28.3096 5.51666C26.3747 7.62121 24.2023 9.92942 23.4895 10.7101C22.7766 11.4569 20.8079 13.4936 19.1446 15.2247C17.4813 16.922 16.1235 18.4155 16.1235 18.5173C16.1235 18.6192 19.7216 18.721 24.1005 18.721H32.0774V10.2349C32.0774 5.5506 32.0434 1.74884 31.9755 1.74884C31.9077 1.74884 30.2783 3.44606 28.3096 5.51666Z" fill="#ECECEC"/>
<path d="M47.9973 6.19554C46.6056 7.51937 45.9606 8.33403 46.5037 7.99459C47.0808 7.65515 48.5404 6.80654 49.7963 6.05976C52.2064 4.70199 52.8174 4.12493 51.9688 4.12493C51.6972 4.12493 51.2559 4.05705 51.0183 3.95521C50.7128 3.81944 49.5248 4.73593 47.9973 6.19554Z" fill="#ECECEC"/>
<path d="M5.60083 12.1698V18.721H9.60626H13.6117L15.5126 16.7522L17.4474 14.8174L15.3768 12.611C14.2566 11.389 12.4236 9.38632 11.3035 8.13038C9.33471 5.92399 9.23287 5.89005 7.43382 5.75427L5.60083 5.65244V12.1698Z" fill="#ECECEC"/>
<path d="M1.83299 8.53771L0 10.201L1.96877 10.2349H3.9036V8.53771C3.9036 7.58727 3.86965 6.84049 3.80177 6.84049C3.73388 6.84049 2.85132 7.58727 1.83299 8.53771Z" fill="#ECECEC"/>
<path d="M9.23276 23.2016C14.4602 28.6327 17.7867 32.129 18.4996 32.9776C20.8078 35.6931 24.7793 39.427 24.8811 39.0197C24.949 38.7821 25.1187 38.2729 25.2884 37.8995C25.4242 37.5261 25.7297 36.6775 25.9673 36.0326C26.2049 35.3876 26.5104 34.539 26.6462 34.1656C27.0196 33.2831 29.3278 26.9694 29.7691 25.6795C29.9388 25.1025 30.2443 24.3557 30.3801 23.9823C30.5498 23.6089 30.8892 22.6585 31.1947 21.8438L31.7379 20.4182H19.1445H6.51721L9.23276 23.2016Z" fill="#ECECEC"/>
<path d="M31.738 24.6273C31.738 24.6952 31.1949 26.2566 30.516 28.0896C29.8711 29.9566 29.0904 32.129 28.8188 32.9776C28.5472 33.8262 28.1739 34.8106 28.0041 35.184C27.8344 35.5574 27.1555 37.3904 26.4766 39.2573C25.7977 41.1243 24.9491 43.3985 24.5758 44.315C24.2024 45.2315 23.9648 46.0123 23.9987 46.0123C24.0666 46.0462 24.406 46.2159 24.7794 46.4196C25.1528 46.6232 26.9519 47.5737 28.7849 48.5581L32.0775 50.3232V37.4243C32.0775 30.296 32.0096 24.4915 31.9077 24.4915C31.8059 24.4915 31.738 24.5594 31.738 24.6273Z" fill="#ECECEC"/>
</svg>
