<?xml version="1.0" standalone="no"?>
<!DOCTYPE svg PUBLIC "-//W3C//DTD SVG 20010904//EN"
 "http://www.w3.org/TR/2001/REC-SVG-20010904/DTD/svg10.dtd">
<svg version="1.0" xmlns="http://www.w3.org/2000/svg"
 width="512.000000pt" height="512.000000pt" viewBox="0 0 512.000000 512.000000"
 preserveAspectRatio="xMidYMid meet">
<metadata>
Created by potrace 1.14, written by Peter Selinger 2001-2017
</metadata>
<g transform="translate(0.000000,512.000000) scale(0.100000,-0.100000)"
fill="#000000" stroke="none">
<path d="M1130 4794 c-179 -48 -302 -217 -294 -406 5 -133 76 -252 194 -323
224 -135 505 -27 591 228 15 44 16 -93 16 -1958 0 -1103 2 -2007 5 -2010 2 -3
38 38 79 91 41 53 81 104 89 114 8 10 32 40 52 67 21 26 88 113 151 193 62 80
195 249 294 376 99 127 220 282 269 345 89 115 111 142 129 163 6 6 30 38 55
71 25 33 50 65 55 71 6 6 39 49 75 97 36 47 68 85 72 84 5 -2 96 -115 257
-322 36 -45 179 -229 344 -440 34 -44 82 -105 107 -136 25 -32 80 -102 122
-156 42 -54 169 -216 282 -361 112 -144 207 -259 209 -255 2 5 3 942 2 2083
-1 1963 -2 2078 -19 2125 -44 124 -140 217 -264 255 -63 20 -94 20 -1441 19
-1178 0 -1384 -2 -1431 -15z"/>
</g>
</svg>
